<?xml version="1.0" encoding="UTF-8"?>
<svg width="1920" height="600" viewBox="0 0 1920 600" xmlns="http://www.w3.org/2000/svg">
    <!-- Background Definitions -->
    <defs>
        <!-- Gradient for background -->
        <linearGradient id="serviceGradient" x1="0%" y1="0%" x2="100%" y2="100%">
            <stop offset="0%" style="stop-color:#2E294E;stop-opacity:0.05"/>
            <stop offset="100%" style="stop-color:#FF6B35;stop-opacity:0.05"/>
        </linearGradient>
        
        <!-- Pattern for dots -->
        <pattern id="dotPattern" x="0" y="0" width="20" height="20" patternUnits="userSpaceOnUse">
            <circle cx="2" cy="2" r="1" fill="#2E294E" opacity="0.2"/>
        </pattern>
    </defs>
    
    <!-- Base Layer -->
    <rect width="100%" height="100%" fill="url(#serviceGradient)"/>
    
    <!-- Dot Pattern Overlay -->
    <rect width="100%" height="100%" fill="url(#dotPattern)"/>
    
    <!-- Decorative Elements -->
    <g opacity="0.1">
        <!-- Abstract Shapes -->
        <path d="M0,100 Q480,0 960,100 T1920,100" 
              fill="none" stroke="#FF6B35" stroke-width="2"/>
        <path d="M0,500 Q480,400 960,500 T1920,500" 
              fill="none" stroke="#2E294E" stroke-width="2"/>
        
        <!-- Corner Decorations -->
        <path d="M0,0 L100,0 L0,100 Z" fill="#FF6B35" opacity="0.1"/>
        <path d="M1920,0 L1820,0 L1920,100 Z" fill="#FF6B35" opacity="0.1"/>
        <path d="M0,600 L100,600 L0,500 Z" fill="#2E294E" opacity="0.1"/>
        <path d="M1920,600 L1820,600 L1920,500 Z" fill="#2E294E" opacity="0.1"/>
    </g>
    
    <!-- Subtle Grid Lines -->
    <g stroke="#2E294E" stroke-width="0.5" opacity="0.05">
        <line x1="480" y1="0" x2="480" y2="600"/>
        <line x1="960" y1="0" x2="960" y2="600"/>
        <line x1="1440" y1="0" x2="1440" y2="600"/>
    </g>
    
    <!-- Financial Icons (Stylized) -->
    <g fill="#2E294E" opacity="0.1">
        <!-- Simplified Bank Icon -->
        <path d="M100,300 L150,250 L200,300 L180,300 L180,350 L120,350 L120,300 Z"/>
        
        <!-- Simplified Graph Icon -->
        <path d="M1720,300 L1770,250 L1820,280 L1770,320 L1720,300"/>
    </g>
</svg>