<?xml version="1.0" encoding="UTF-8"?>
<svg width="600" height="400" viewBox="0 0 600 400" xmlns="http://www.w3.org/2000/svg">
    <!-- Background Elements -->
    <rect x="0" y="0" width="600" height="400" fill="#F8F9FA"/>
    <path d="M0 300 Q150 250 300 300 T600 300 L600 400 L0 400 Z" fill="#FF6B35" opacity="0.1"/>
    
    <!-- Building/Bank Structure -->
    <rect x="150" y="100" width="300" height="200" fill="#2E294E" rx="10"/>
    <rect x="170" y="120" width="260" height="160" fill="#FFFFFF" rx="5"/>
    
    <!-- Pillars -->
    <rect x="200" y="80" width="30" height="220" fill="#FF6B35"/>
    <rect x="285" y="80" width="30" height="220" fill="#FF6B35"/>
    <rect x="370" y="80" width="30" height="220" fill="#FF6B35"/>
    
    <!-- Roof -->
    <path d="M130 80 L470 80 L300 20 Z" fill="#2E294E"/>
    
    <!-- Steps -->
    <rect x="200" y="300" width="200" height="20" fill="#2E294E"/>
    <rect x="180" y="320" width="240" height="20" fill="#2E294E"/>
    <rect x="160" y="340" width="280" height="20" fill="#2E294E"/>
    
    <!-- Decorative Elements -->
    <circle cx="300" cy="180" r="40" fill="#F7C59F" opacity="0.8"/>
    <path d="M280 180 L320 180 M300 160 L300 200" stroke="#2E294E" stroke-width="4"/>
    
    <!-- Growth Symbols -->
    <path d="M50 250 L100 200 L150 220 L200 180" fill="none" stroke="#FF6B35" stroke-width="3"/>
    <path d="M400 220 L450 180 L500 200 L550 150" fill="none" stroke="#FF6B35" stroke-width="3"/>
    
    <!-- Coins/Currency Symbols -->
    <circle cx="80" cy="150" r="15" fill="#F7C59F"/>
    <circle cx="520" cy="120" r="15" fill="#F7C59F"/>
    <circle cx="480" cy="280" r="15" fill="#F7C59F"/>
    <circle cx="120" cy="280" r="15" fill="#F7C59F"/>
    
    <!-- ₹ Symbols -->
    <text x="75" y="156" font-family="Arial" font-size="16" fill="#2E294E" text-anchor="middle">₹</text>
    <text x="515" y="126" font-family="Arial" font-size="16" fill="#2E294E" text-anchor="middle">₹</text>
    <text x="475" y="286" font-family="Arial" font-size="16" fill="#2E294E" text-anchor="middle">₹</text>
    <text x="115" y="286" font-family="Arial" font-size="16" fill="#2E294E" text-anchor="middle">₹</text>
</svg>